static_grf.mot
version=1
nRows=25
nColumns 19
inDegrees=yes
endheader
time	1_ground_force_vx	1_ground_force_vy	1_ground_force_vz	1_ground_force_px	1_ground_force_py	1_ground_force_pz	1_ground_torque_x	1_ground_torque_y	1_ground_torque_z	2_ground_force_vx	2_ground_force_vy	2_ground_force_vz	2_ground_force_px	2_ground_force_py	2_ground_force_pz	2_ground_torque_x	2_ground_torque_y	2_ground_torque_z
            0.503500	            0.701648	          265.942381	          -10.600928	           -0.323937	            0.006290	           -0.424875	            0.000640	            0.242517	           -0.009667	           -2.073046	          290.351315	           14.176489	           -0.313088	            0.005200	           -0.654578	            0.001003	           -0.140550	           -0.006862
            0.504000	            0.379963	          267.745762	          -10.775826	           -0.322752	            0.006285	           -0.423623	            0.000269	            0.189869	           -0.007642	           -2.025552	          290.167510	           14.128884	           -0.313130	            0.005200	           -0.654787	            0.001414	           -0.202602	           -0.009865
            0.504500	            0.517623	          267.024726	          -10.779259	           -0.323386	            0.006285	           -0.423514	            0.000446	            0.229839	           -0.009278	           -2.117258	          289.614750	           14.126953	           -0.313223	            0.005198	           -0.654252	            0.001294	           -0.177038	           -0.008636
            0.505000	            0.425596	          267.025298	          -10.916599	           -0.323682	            0.006286	           -0.423957	            0.000382	            0.239761	           -0.009802	           -2.259740	          290.166163	           14.269768	           -0.313260	            0.005199	           -0.654722	            0.001574	           -0.202090	           -0.009938
            0.505500	            0.334398	          266.844198	          -10.733721	           -0.323481	            0.006286	           -0.423762	            0.000257	            0.205245	           -0.008256	           -2.073710	          290.535455	           14.177146	           -0.313031	            0.005200	           -0.654756	            0.001269	           -0.177788	           -0.008675
            0.506000	            0.517671	          267.385061	          -10.731857	           -0.323350	            0.006284	           -0.423420	            0.000275	            0.142023	           -0.005700	           -1.932537	          290.352157	           14.082573	           -0.313018	            0.005200	           -0.654578	            0.001172	           -0.176110	           -0.008542
            0.506500	            0.379654	          267.566056	          -10.914166	           -0.322815	            0.006284	           -0.423408	            0.000235	            0.165845	           -0.006765	           -1.976023	          289.430949	           14.173164	           -0.313461	            0.005196	           -0.654007	            0.001556	           -0.227856	           -0.011158
            0.507000	            0.426279	          267.024118	          -10.641463	           -0.323413	            0.006284	           -0.423352	            0.000249	            0.156011	           -0.006217	           -1.975235	          289.245744	           14.454076	           -0.313379	            0.005197	           -0.654088	            0.001705	           -0.249686	           -0.012477
            0.507500	            0.242419	          267.205105	          -10.823659	           -0.323315	            0.006286	           -0.423760	            0.000128	            0.140544	           -0.005693	           -1.978058	          289.983706	           14.081279	           -0.313239	            0.005198	           -0.654220	            0.001677	           -0.245888	           -0.011940
            0.508000	            0.380094	          267.024699	          -10.778917	           -0.322934	            0.006285	           -0.423587	            0.000168	            0.118069	           -0.004766	           -2.213637	          290.351142	           14.082693	           -0.313408	            0.005198	           -0.654448	            0.001285	           -0.168533	           -0.008174
            0.508500	            0.425872	          267.385240	          -10.777485	           -0.323080	            0.006283	           -0.423148	            0.000247	            0.155076	           -0.006251	           -2.166081	          290.166836	           14.175872	           -0.313532	            0.005197	           -0.654335	            0.000895	           -0.119887	           -0.005857
            0.509000	            0.379786	          266.844993	          -10.917258	           -0.323338	            0.006285	           -0.423721	            0.000245	            0.172288	           -0.007049	           -1.927762	          289.062107	           14.359543	           -0.313816	            0.005195	           -0.654103	            0.001899	           -0.284679	           -0.014142
            0.509500	            0.563466	          267.024735	          -10.779372	           -0.323179	            0.006286	           -0.423796	            0.000360	            0.170551	           -0.006885	           -2.121890	          290.903629	           14.178481	           -0.313312	            0.005199	           -0.654594	            0.001537	           -0.210735	           -0.010271
            0.510000	            0.563337	          266.484300	          -10.873403	           -0.323431	            0.006287	           -0.424083	            0.000365	            0.172748	           -0.007049	           -2.073046	          290.351315	           14.176489	           -0.313465	            0.005199	           -0.654706	            0.001580	           -0.221242	           -0.010802
            0.510500	            0.425467	          266.484864	          -11.010630	           -0.323519	            0.006286	           -0.423964	            0.000319	            0.199830	           -0.008257	           -2.120478	          290.534617	           14.364879	           -0.313025	            0.005199	           -0.654432	            0.001551	           -0.212499	           -0.010507
            0.511000	            0.701079	          265.943364	          -10.830207	           -0.323169	            0.006288	           -0.424208	            0.000449	            0.170364	           -0.006938	           -2.212849	          290.165997	           14.363605	           -0.313320	            0.005199	           -0.654527	            0.001740	           -0.228105	           -0.011291
            0.511500	            0.563598	          266.303672	          -10.782464	           -0.323282	            0.006289	           -0.424465	            0.000364	            0.172189	           -0.006972	           -2.070449	          289.615254	           14.033077	           -0.313220	            0.005198	           -0.654381	            0.001407	           -0.196839	           -0.009538
            0.512000	            0.426150	          266.483684	          -10.735494	           -0.323380	            0.006288	           -0.424343	            0.000307	            0.192078	           -0.007738	           -2.024182	          289.798894	           14.221427	           -0.313294	            0.005198	           -0.654236	            0.001546	           -0.221272	           -0.010859
            0.512500	            0.471373	          267.385838	          -10.915167	           -0.323009	            0.006284	           -0.423451	            0.000210	            0.118954	           -0.004856	           -1.929817	          289.615092	           14.220730	           -0.313547	            0.005195	           -0.653798	            0.001228	           -0.184312	           -0.009050
            0.513000	            0.334545	          266.663766	          -10.688638	           -0.323562	            0.006286	           -0.423940	            0.000114	            0.091193	           -0.003655	           -1.885023	          290.168185	           14.081897	           -0.313320	            0.005199	           -0.654658	            0.001532	           -0.235757	           -0.011441
            0.513500	            0.333682	          267.025673	          -11.008083	           -0.323147	            0.006287	           -0.424115	            0.000202	            0.161365	           -0.006652	           -1.742459	          289.616103	           14.126794	           -0.313277	            0.005197	           -0.653992	            0.001473	           -0.244790	           -0.011940
            0.514000	            0.472205	          265.942730	          -10.692071	           -0.323561	            0.006290	           -0.424750	            0.000302	            0.170336	           -0.006848	           -2.168034	          290.718923	           14.271700	           -0.312917	            0.005201	           -0.654869	            0.001247	           -0.167224	           -0.008209
            0.514500	            0.518046	          267.204175	          -10.595062	           -0.322999	            0.006286	           -0.423795	            0.000172	            0.088758	           -0.003519	           -2.119834	          290.350643	           14.317294	           -0.313404	            0.005199	           -0.654771	            0.001425	           -0.195199	           -0.009625
            0.515000	            0.517429	          266.844823	          -10.871744	           -0.322958	            0.006285	           -0.423574	            0.000398	            0.205237	           -0.008362	           -1.933825	          290.720103	           14.177744	           -0.313691	            0.005198	           -0.654740	            0.001282	           -0.192675	           -0.009396
            0.515500	            0.471373	          267.385838	          -10.915167	           -0.322714	            0.006286	           -0.423872	            0.000367	            0.208063	           -0.008494	           -1.932455	          290.351487	           14.270286	           -0.313404	            0.005198	           -0.654383	            0.001306	           -0.196205	           -0.009643
